PathFileType	3	(X/Y/Z)	D:\minhoCalibration\240510\subject4_KPNP\preferred\preferred10.trc
DataRate	CameraRate	NumFrames	NumMarkers	Units	OrigDataRate	OrigDataStartFrame	OrigNumFrames
200.0	200.0	37	10	mm	200.0	282	95	
Frame#	Time	Left_Ankle_Outer1			Left_Ankle_Inner1			Left_Knee_Outer1			Left_Knee_Inner1			Left_Wrist1			Right_Wrist1			Right_Knee_Inner1			Right_Knee_Outer1			Right_Ankle_Inner1			Right_Ankle_Outer1			
		X1	Y1	Z1	X2	Y2	Z2	X3	Y3	Z3	X4	Y4	Z4	X5	Y5	Z5	X6	Y6	Z6	X7	Y7	Z7	X8	Y8	Z8	X9	Y9	Z9	X10	Y10	Z10	
282	1.4	-443.47559	1143.0994	272.80429	-432.20532	1039.1714	267.68826	-274.76361	1065.6362	753.78632	-317.36655	979.33868	733.51385	-407.72913	1223.2239	1121.2552	-439.01123	924.50061	1344.9146	-318.18185	560.67786	1097.6792	-320.82718	572.85437	1207.7427	-508.00018	121.57858	1167.9266	-491.16379	134.33986	1221.6024
283	1.405	-452.34497	1136.5426	272.87323	-436.99796	1032.4541	267.61438	-274.1868	1067.4006	755.32556	-311.99503	985.14984	733.71588	-412.47906	1222.0482	1117.6798	-436.97021	922.4585	1341.4707	-317.16348	559.20862	1094.6925	-320.18854	571.3623	1204.6877	-509.11151	120.94083	1167.1968	-491.69489	133.73032	1220.557
284	1.41	-461.59073	1127.9119	271.1691	-442.06186	1024.5027	267.99493	-276.07394	1071.7434	756.33563	-308.75424	991.07715	733.20142	-417.66251	1220.6537	1114.5367	-435.18039	920.43005	1338.1504	-317.35254	557.63562	1091.9232	-319.43909	570.05457	1201.599	-509.73373	119.88433	1166.2495	-492.26532	133.3468	1219.8458
285	1.415	-471.23987	1118.8132	270.02274	-446.92273	1015.4504	268.60831	-279.9136	1079.6339	755.77905	-308.10425	996.06921	732.96954	-423.41553	1218.9033	1111.5791	-433.66086	918.44385	1334.9417	-316.89722	556.34375	1088.478	-318.68933	568.93829	1198.2097	-511.05368	119.30077	1166.0671	-492.86249	132.83247	1219.2064
286	1.42	-481.17981	1108.0051	269.19357	-451.49377	1006.1042	270.15344	-285.0159	1088.6506	754.95032	-306.89377	1000.7501	733.01648	-428.78757	1217.7072	1108.7456	-432.45096	916.55188	1331.7695	-317.68185	555.04498	1085.3011	-317.97052	567.80194	1194.5715	-512.11267	118.29633	1165.6042	-493.41708	132.33594	1218.5906
287	1.425	-491.3837	1095.4912	269.04907	-454.80664	995.19519	269.83505	-291.44495	1097.2968	753.97632	-305.60699	1005.4159	733.60291	-434.39114	1216.4066	1106.1528	-431.50366	914.84192	1328.5903	-318.10321	553.96674	1081.6024	-317.20367	566.70294	1191.0992	-513.30261	117.41817	1165.4012	-494.00415	131.78683	1218.2095
288	1.43	-501.37048	1081.8496	269.67093	-457.24667	985.88306	271.06525	-298.03482	1105.2654	752.26807	-303.58072	1010.4637	734.47192	-439.66428	1215.5231	1103.921	-430.58841	913.19678	1325.2499	-319.5213	552.62463	1078.3177	-316.41003	565.67957	1187.5571	-514.40601	116.31007	1165.337	-494.67987	131.04008	1217.6952
289	1.435	-510.71619	1066.8259	270.79688	-458.33417	974.96771	271.88315	-307.07535	1111.6447	750.07104	-300.32864	1015.8682	735.13147	-444.36801	1215.1493	1102.2184	-429.59177	911.5423	1321.7794	-320.32925	551.28204	1074.5415	-315.80392	564.72821	1184.0079	-515.15277	115.54887	1165.2239	-495.27826	130.50639	1217.4957
290	1.44	-519.88556	1050.9175	272.84222	-458.82996	964.46411	271.93954	-315.91116	1116.4924	747.28143	-297.17307	1021.5673	735.61359	-449.25836	1215.1095	1101.6068	-428.3125	909.67322	1318.213	-322.13449	549.61456	1071.2052	-315.12277	563.68451	1180.1716	-516.23584	114.70173	1165.218	-495.79132	130.07263	1217.371
291	1.445	-526.7749	1033.563	275.20963	-459.09583	953.81293	272.68768	-324.96417	1120.0601	744.61047	-295.31683	1026.533	735.77704	-452.97708	1215.3005	1101.4299	-426.47464	907.6413	1314.8879	-323.37225	548.39484	1067.7378	-314.48007	562.85754	1176.4508	-517.20343	113.92721	1165.2029	-496.16336	129.55846	1217.1155
292	1.45	-533.77454	1017.1454	277.83087	-459.57666	943.01868	274.35162	-333.12738	1122.4677	742.18713	-294.56653	1030.7762	735.95795	-456.60028	1215.5137	1101.6987	-424.29501	905.52051	1312.2208	-324.70972	547.21014	1064.3251	-313.69562	561.87067	1173.0188	-518.6449	113.19151	1165.3365	-496.4407	129.29413	1216.8766
293	1.455	-539.2384	1001.6458	280.05408	-461.18588	932.25555	275.55878	-341.02161	1123.5178	740.01227	-294.87247	1034.1346	736.12201	-460.49741	1215.4738	1101.8684	-421.81323	903.3916	1309.8224	-325.87628	546.03406	1060.8895	-312.70233	561.09808	1169.627	-519.3963	112.59165	1165.3064	-496.74228	128.91022	1216.6644
294	1.46	-546.22809	986.82086	283.28705	-463.95087	921.41663	276.35901	-348.26703	1123.3306	738.00952	-296.47101	1036.0844	736.13995	-464.27817	1215.3325	1101.8541	-419.25433	901.73651	1307.8231	-327.28683	544.95929	1057.6489	-311.57596	560.16522	1166.2932	-519.97119	112.12699	1165.2769	-496.9184	128.53929	1216.338
295	1.465	-552.30157	972.21753	285.97592	-467.65143	910.46033	278.05969	-354.40668	1122.0173	736.0932	-298.68372	1036.6592	735.79016	-467.91803	1214.8115	1101.6432	-416.43286	900.5694	1305.7772	-328.44522	543.83197	1054.3656	-310.19022	559.31781	1163.046	-520.65009	111.50642	1165.0488	-497.42426	128.18028	1216.1897
296	1.47	-558.06696	958.18231	288.72647	-472.85425	899.08575	281.27634	-360.00504	1120.0354	734.13721	-301.7623	1035.6902	735.25641	-472.3703	1213.5518	1100.8746	-413.47644	899.80536	1303.6611	-330.05112	542.79291	1051.5391	-308.63962	558.52142	1159.7853	-521.10028	110.85864	1164.9285	-497.72977	127.7468	1215.8738
297	1.475	-563.68024	944.0799	291.30478	-477.02719	887.60022	282.8129	-364.87158	1117.2606	731.80206	-305.19186	1033.6732	734.66431	-476.62952	1211.9115	1099.9821	-410.37683	899.1593	1301.5209	-330.8349	541.99744	1048.5068	-306.93253	557.86761	1156.8527	-521.70575	110.34749	1164.996	-498.14243	127.28083	1215.6495
298	1.48	-570.44513	930.64771	295.14142	-482.21719	875.98602	285.72888	-369.15964	1114.2618	729.43634	-308.97009	1030.7526	734.10553	-481.13809	1209.8313	1098.7676	-407.18494	898.84241	1299.5909	-332.01501	541.08319	1045.9216	-305.43478	556.78754	1153.5106	-522.43677	109.83173	1165.101	-498.41376	126.93356	1215.6643
299	1.485	-576.91327	916.97821	299.12363	-487.71045	863.89331	288.96185	-373.5849	1111.1284	727.3136	-312.72467	1027.3948	733.68317	-485.65533	1207.5878	1097.3483	-403.97086	898.65784	1297.9773	-332.3244	540.16345	1043.2261	-303.73221	555.95392	1150.8057	-522.93268	109.24532	1165.5073	-498.57632	126.67194	1215.8534
300	1.49	-582.57166	902.19409	302.77426	-493.10995	851.74432	292.5498	-377.82822	1107.7268	725.27661	-316.61957	1023.7921	733.4859	-490.20032	1204.7887	1095.8011	-400.78378	898.53046	1296.2379	-332.72018	538.91003	1040.7185	-302.31485	554.63007	1147.7207	-523.56158	108.41198	1166.0778	-498.54453	126.1716	1216.2361
301	1.495	-589.60321	888.0011	307.60663	-498.80112	839.29523	296.54144	-381.74164	1104.0671	723.48572	-320.42352	1020.1339	733.38116	-494.76364	1201.9467	1094.15	-397.57077	898.3678	1294.4551	-332.63232	537.26019	1038.1543	-301.30804	553.31879	1144.6517	-524.10168	107.87344	1167.2023	-498.13834	125.19941	1216.1495
302	1.5	-597.26447	873.61682	313.67819	-504.31323	826.59747	300.90616	-385.78644	1100.2233	722.02618	-324.03491	1016.4323	733.297	-499.4231	1198.8551	1092.6271	-394.48865	898.34668	1292.8573	-332.60071	535.79773	1035.9747	-300.32004	551.86896	1142.0736	-524.13184	106.93597	1167.861	-498.09201	124.75822	1217.1017
303	1.505	-601.9751	856.92004	318.30933	-510.30545	813.35284	305.87463	-389.77274	1096.2177	720.79468	-326.99478	1012.8845	733.43707	-504.19342	1195.3098	1091.1266	-391.53485	898.22137	1291.2418	-332.30646	534.12567	1033.8152	-299.56412	550.23193	1139.5139	-524.35242	106.0741	1169.2332	-497.99515	124.08512	1218.0564
304	1.51	-609.94684	841.96722	326.00159	-516.14178	800.00586	311.04822	-393.39581	1092.076	719.60577	-332.12881	1008.0652	732.40277	-508.49332	1191.1755	1089.7466	-388.73242	898.14221	1289.8068	-332.14276	532.07275	1031.6985	-298.87851	548.59296	1137.1754	-524.64752	104.97862	1170.7186	-497.65521	123.19186	1218.8752
305	1.515	-616.94037	826.13287	333.26776	-522.19019	786.27411	316.75528	-397.39401	1088.0669	718.58026	-336.03882	1004.111	731.65948	-512.81665	1186.717	1088.6074	-386.00934	897.98755	1288.3754	-332.05942	530.04974	1029.712	-298.39899	546.83185	1135.0082	-524.81769	104.16766	1172.3073	-497.38593	122.41933	1220.0468
306	1.52	-624.35925	810.21613	341.02054	-528.66229	772.19189	323.23102	-401.70523	1083.8457	717.48358	-339.91415	1000.301	730.7713	-517.12036	1182.2026	1087.3864	-383.42664	897.66876	1287.0217	-331.92679	527.74908	1027.5856	-298.04507	545.05603	1132.7437	-525.45435	103.26343	1174.0096	-497.21362	121.66344	1221.4194
307	1.525	-630.39508	793.1748	348.80869	-535.0697	758.03967	330.00668	-406.19296	1079.5759	716.30743	-343.93872	996.57739	729.41144	-521.03613	1177.9779	1086.4661	-381.02451	897.32037	1285.802	-331.73773	525.83368	1025.4015	-297.77899	543.20227	1130.5814	-525.30212	101.96407	1175.963	-496.87384	120.80012	1222.8011
308	1.53	-637.20831	777.12994	357.61688	-541.88312	743.50421	337.58203	-411.0813	1075.3442	715.08527	-347.44772	992.98804	727.9491	-525.10022	1174.0065	1085.4823	-378.71042	896.79633	1284.6779	-332.20285	523.70581	1023.421	-297.5036	541.33594	1128.3407	-525.52332	100.88958	1177.8121	-496.55603	119.93313	1224.2975
309	1.535	-643.63147	761.22894	366.62769	-548.58032	728.91022	345.55807	-416.39346	1070.9258	713.76581	-351.70035	989.25885	726.25055	-528.83698	1170.3981	1084.6334	-376.61978	896.3197	1283.6116	-333.04037	521.771	1021.5734	-297.21335	539.49823	1126.2468	-525.82422	99.802177	1179.6565	-496.18292	119.01648	1225.8823
310	1.54	-650.88147	746.13184	376.99786	-555.10529	714.00537	353.89252	-421.60065	1066.3923	712.35522	-355.65765	985.50293	724.48004	-532.33264	1167.0703	1083.9596	-374.56946	895.62848	1282.4008	-333.83963	519.75641	1019.4526	-297.01099	537.5777	1123.9019	-525.75116	98.878273	1181.7295	-495.77466	118.16458	1227.5938
311	1.545	-657.77411	730.13074	387.26828	-561.98199	698.94855	363.06409	-426.9808	1061.8153	711.03082	-359.66806	981.81018	722.74011	-535.87903	1164.0206	1083.4288	-372.73785	895.00311	1281.3557	-334.48169	517.86493	1017.0001	-296.79172	535.74481	1121.5653	-525.83246	98.074593	1184.0105	-495.29239	117.32602	1229.2844
312	1.55	-664.38782	714.22705	398.15933	-569.03583	683.93457	372.66208	-432.81842	1057.0305	709.81165	-362.68063	978.50006	721.33356	-538.89948	1161.5107	1083.2036	-371.06015	894.14832	1280.0406	-335.99561	515.89258	1014.999	-296.50162	533.89441	1119.0624	-525.87189	97.092354	1186.0898	-494.79718	116.60147	1231.0992
313	1.555	-670.72925	698.41711	409.26492	-575.85101	668.76251	382.89371	-438.26193	1051.7861	708.57678	-367.49191	973.7124	719.3631	-541.81726	1159.0825	1082.9795	-369.56558	893.25067	1278.7168	-337.34949	514.03406	1012.7795	-296.1286	532.06128	1116.5292	-525.83405	96.23069	1188.2412	-494.22464	115.9794	1232.8795
314	1.56	-677.42859	682.68542	421.04483	-582.59631	653.41907	393.5563	-443.68396	1046.4209	707.42102	-372.76108	969.10333	718.08344	-544.52612	1156.6212	1082.8979	-368.1246	892.09619	1277.1548	-339.09326	512.34363	1010.7119	-295.65579	530.26453	1113.969	-525.81915	95.668785	1190.3845	-493.59875	115.40524	1234.7026
315	1.565	-683.76294	666.88751	433.03943	-589.09259	638.10748	404.67209	-449.13025	1040.8822	706.38507	-376.48975	964.26349	716.33301	-547.2561	1154.0961	1082.6926	-366.94263	890.75708	1275.5321	-340.31628	510.61279	1008.3826	-295.11081	528.49756	1111.1305	-525.5871	95.061638	1192.4928	-492.75269	115.00142	1236.4231
316	1.57	-690.24792	651.67163	445.72064	-595.24133	622.25098	416.01016	-454.25101	1035.1221	705.44708	-382.38693	958.6424	715.48224	-549.65167	1151.1978	1082.484	-365.94031	889.35767	1273.9122	-341.8381	509.05365	1006.2653	-294.36896	526.86462	1108.3849	-525.09259	94.431625	1194.6141	-491.9754	114.64416	1238.1266
317	1.575	-696.3288	636.21008	458.42188	-601.15375	606.77954	428.17804	-459.54236	1028.8932	704.50842	-386.64871	952.97131	714.30591	-552.11389	1148.2611	1082.2333	-365.02051	887.73889	1272.1589	-343.32761	507.57663	1004.5797	-293.62607	525.16132	1105.6173	-524.76361	93.943901	1196.6583	-491.11566	114.30089	1239.7338
318	1.58	-702.19043	620.96997	471.39673	-607.05859	591.59174	440.67892	-464.51468	1022.4307	703.53711	-391.45682	946.98657	713.36945	-553.95697	1144.5637	1082.1591	-364.20956	886.09106	1270.254	-344.49463	506.08963	1002.5912	-292.73737	523.67163	1102.8982	-524.78967	93.44136	1198.1187	-490.26617	114.08237	1241.2589
